<?xml version="1.0" encoding="UTF-8"?>
<!DOCTYPE svg PUBLIC "-//W3C//DTD SVG 1.1//EN" "http://www.w3.org/Graphics/SVG/1.1/DTD/svg11.dtd">
<svg xmlns="http://www.w3.org/2000/svg" version="1.1" width="1140px" height="742px" style="shape-rendering:geometricPrecision; text-rendering:geometricPrecision; image-rendering:optimizeQuality; fill-rule:evenodd; clip-rule:evenodd" xmlns:xlink="http://www.w3.org/1999/xlink">
<g><path style="opacity:1" fill="#fffefe" d="M -0.5,-0.5 C 379.5,-0.5 759.5,-0.5 1139.5,-0.5C 1139.5,246.833 1139.5,494.167 1139.5,741.5C 759.5,741.5 379.5,741.5 -0.5,741.5C -0.5,494.167 -0.5,246.833 -0.5,-0.5 Z"/></g>
<g><path style="opacity:1" fill="#fd8106" d="M 544.5,61.5 C 634.959,55.8286 707.792,88.4952 763,159.5C 807.496,223.81 819.163,293.81 798,369.5C 779.747,425.404 746.08,469.404 697,501.5C 696.333,500.833 696.333,500.167 697,499.5C 734.43,456.423 746.763,406.756 734,350.5C 730.656,326.78 725.656,303.447 719,280.5C 716.36,243.091 711.027,206.091 703,169.5C 699.949,158.07 695.282,147.403 689,137.5C 679.843,128.333 669.009,121.833 656.5,118C 647.262,115.571 637.929,113.571 628.5,112C 608.458,109.827 588.458,107.827 568.5,106C 577.083,114.578 584.916,123.745 592,133.5C 592.982,134.759 593.315,136.092 593,137.5C 583.047,127.207 572.213,118.04 560.5,110C 540.671,96.5821 520.337,83.9154 499.5,72C 504.594,69.7237 509.927,68.0571 515.5,67C 525.268,64.9449 534.935,63.1116 544.5,61.5 Z"/></g>
<g><path style="opacity:1" fill="#fd8207" d="M 352.5,198.5 C 371.192,279.88 420.858,332.38 501.5,356C 516.048,359.424 524.881,353.924 528,339.5C 527.239,329.857 529.239,320.857 534,312.5C 532.233,324.033 531.233,335.7 531,347.5C 528.067,357.434 521.567,363.6 511.5,366C 504.452,366.73 497.452,366.397 490.5,365C 478.758,361.535 467.758,356.535 457.5,350C 435.211,334.721 414.378,317.555 395,298.5C 384.682,285.866 375.348,272.533 367,258.5C 381.386,302.501 404.386,342.501 436,378.5C 454.792,398.31 476.626,413.81 501.5,425C 505.716,426.684 510.049,427.851 514.5,428.5C 514.764,417.018 517.264,406.018 522,395.5C 532.865,374.26 545.365,354.093 559.5,335C 549.106,313.574 545.606,291.074 549,267.5C 550.759,281.945 554.425,295.945 560,309.5C 566.413,323.583 576.913,333.083 591.5,338C 595.091,338.789 598.591,338.622 602,337.5C 602.525,319.432 601.858,301.432 600,283.5C 606.26,297.47 608.927,312.137 608,327.5C 609.442,338.216 613.942,347.383 621.5,355C 627.73,358.483 634.397,359.816 641.5,359C 636.707,355.301 635.373,350.634 637.5,345C 640.366,343.543 643.366,343.21 646.5,344C 650.642,347.962 654.308,352.296 657.5,357C 659.441,357.743 661.274,357.576 663,356.5C 663.81,351.743 663.476,347.076 662,342.5C 658.694,339.194 655.36,335.86 652,332.5C 649.466,329.107 647.799,325.441 647,321.5C 653.302,326.801 659.302,332.468 665,338.5C 667.293,341.456 668.627,344.79 669,348.5C 668.763,356.156 668.763,363.823 669,371.5C 673.405,387.921 675.405,404.587 675,421.5C 671.964,458.785 652.798,483.285 617.5,495C 603.843,497.483 591.176,495.15 579.5,488C 567.523,477.437 564.69,464.937 571,450.5C 576.004,443.977 582.504,441.81 590.5,444C 595.433,447.533 596.599,452.033 594,457.5C 593.279,451.946 590.112,448.946 584.5,448.5C 571.571,452.934 569.071,460.934 577,472.5C 588.867,484.476 600.867,484.476 613,472.5C 622.893,454.398 619.727,438.898 603.5,426C 579.438,414.307 558.938,418.807 542,439.5C 533.755,451.397 531.421,464.397 535,478.5C 540.475,502.642 554.641,519.475 577.5,529C 585.004,531.753 592.671,533.92 600.5,535.5C 503.949,545.299 427.449,510.966 371,432.5C 331.072,369.337 321.072,301.67 341,229.5C 344.549,219.015 348.382,208.682 352.5,198.5 Z"/></g>
<g><path style="opacity:1" fill="#fd840d" d="M 85.5,565.5 C 95.4833,564.203 104.817,566.036 113.5,571C 118.468,575.77 121.135,581.604 121.5,588.5C 117.486,588.666 113.486,588.499 109.5,588C 107.047,586.12 105.047,583.787 103.5,581C 95.1361,575.651 87.6361,576.484 81,583.5C 79.8238,587.26 80.9904,590.093 84.5,592C 94.7745,595.486 105.108,598.819 115.5,602C 123.067,607.657 125.567,615.157 123,624.5C 120.401,632.766 114.901,637.932 106.5,640C 94.3057,643.29 82.9723,641.623 72.5,635C 67.8083,630.116 65.475,624.282 65.5,617.5C 70.5,617.5 75.5,617.5 80.5,617.5C 80.6809,622.853 83.3476,626.353 88.5,628C 94.2531,628.851 99.9198,628.517 105.5,627C 111.036,622.162 110.703,617.829 104.5,614C 93.7125,610.638 83.0458,606.971 72.5,603C 70.0439,600.592 68.2106,597.759 67,594.5C 64.1092,578.931 70.2758,569.265 85.5,565.5 Z"/></g>
<g><path style="opacity:1" fill="#fd830c" d="M 844.5,565.5 C 875.961,566.004 889.461,582.004 885,613.5C 881.919,628.247 873.086,637.414 858.5,641C 835.226,644.124 821.059,634.29 816,611.5C 813.03,595.964 817.197,582.797 828.5,572C 833.585,568.923 838.918,566.757 844.5,565.5 Z"/></g>
<g><path style="opacity:1" fill="#fd830c" d="M 187.5,638.5 C 182.36,639.488 177.026,639.821 171.5,639.5C 171.037,631.447 170.203,623.447 169,615.5C 167.681,613.513 165.848,612.346 163.5,612C 157.175,611.5 150.842,611.334 144.5,611.5C 144.5,620.833 144.5,630.167 144.5,639.5C 139.5,639.5 134.5,639.5 129.5,639.5C 129.333,616.831 129.5,594.164 130,571.5C 131.214,569.951 132.714,568.785 134.5,568C 146.5,567.333 158.5,567.333 170.5,568C 185.475,572.01 190.641,581.51 186,596.5C 184.5,600.667 181.667,603.5 177.5,605C 180.333,606.5 182.5,608.667 184,611.5C 185.733,620.446 186.9,629.446 187.5,638.5 Z"/></g>
<g><path style="opacity:1" fill="#fc8103" d="M 199.5,568.5 C 202.5,568.5 205.5,568.5 208.5,568.5C 208.5,592.167 208.5,615.833 208.5,639.5C 203.833,639.5 199.167,639.5 194.5,639.5C 194.333,616.831 194.5,594.164 195,571.5C 196.129,569.859 197.629,568.859 199.5,568.5 Z"/></g>
<g><path style="opacity:1" fill="#fda44a" d="M 199.5,568.5 C 202.625,567.521 205.958,567.187 209.5,567.5C 209.831,591.672 209.498,615.672 208.5,639.5C 208.5,615.833 208.5,592.167 208.5,568.5C 205.5,568.5 202.5,568.5 199.5,568.5 Z"/></g>
<g><path style="opacity:1" fill="#fc8103" d="M 220.5,568.5 C 223.5,568.5 226.5,568.5 229.5,568.5C 229.17,588.007 229.503,607.341 230.5,626.5C 242.167,626.5 253.833,626.5 265.5,626.5C 265.5,630.833 265.5,635.167 265.5,639.5C 248.833,639.5 232.167,639.5 215.5,639.5C 215.333,616.831 215.5,594.164 216,571.5C 217.129,569.859 218.629,568.859 220.5,568.5 Z"/></g>
<g><path style="opacity:1" fill="#fd9a35" d="M 220.5,568.5 C 223.625,567.521 226.958,567.187 230.5,567.5C 230.5,587.167 230.5,606.833 230.5,626.5C 229.503,607.341 229.17,588.007 229.5,568.5C 226.5,568.5 223.5,568.5 220.5,568.5 Z"/></g>
<g><path style="opacity:1" fill="#fee9d4" d="M 230.5,567.5 C 231.497,586.659 231.83,605.993 231.5,625.5C 243.012,625.172 254.346,625.505 265.5,626.5C 253.833,626.5 242.167,626.5 230.5,626.5C 230.5,606.833 230.5,587.167 230.5,567.5 Z"/></g>
<g><path style="opacity:1" fill="#fd840e" d="M 297.5,567.5 C 302.5,567.5 307.5,567.5 312.5,567.5C 320.831,591.494 329.165,615.494 337.5,639.5C 332.167,639.5 326.833,639.5 321.5,639.5C 320.782,634.677 319.449,630.01 317.5,625.5C 308.184,624.335 298.851,624.168 289.5,625C 287.66,629.687 286.327,634.52 285.5,639.5C 280.167,639.5 274.833,639.5 269.5,639.5C 277.04,616.712 284.874,594.045 293,571.5C 294.397,569.93 295.897,568.596 297.5,567.5 Z"/></g>
<g><path style="opacity:1" fill="#fd8206" d="M 385.5,615.5 C 385.56,616.043 385.893,616.376 386.5,616.5C 387.499,600.514 387.833,584.514 387.5,568.5C 391.833,568.5 396.167,568.5 400.5,568.5C 400.5,592.167 400.5,615.833 400.5,639.5C 395.238,639.805 390.072,639.471 385,638.5C 376.155,623.472 367.322,608.472 358.5,593.5C 358.217,592.711 357.717,592.044 357,591.5C 356.5,607.497 356.333,623.497 356.5,639.5C 351.833,639.5 347.167,639.5 342.5,639.5C 342.333,616.831 342.5,594.164 343,571.5C 344.167,570.333 345.333,569.167 346.5,568C 350.167,567.333 353.833,567.333 357.5,568C 367.459,583.46 376.792,599.293 385.5,615.5 Z"/></g>
<g><path style="opacity:1" fill="#fc9327" d="M 400.5,639.5 C 400.5,615.833 400.5,592.167 400.5,568.5C 396.167,568.5 391.833,568.5 387.5,568.5C 387.833,584.514 387.499,600.514 386.5,616.5C 385.893,616.376 385.56,616.043 385.5,615.5C 386.496,599.675 386.83,583.675 386.5,567.5C 391.5,567.5 396.5,567.5 401.5,567.5C 401.831,591.672 401.498,615.672 400.5,639.5 Z"/></g>
<g><path style="opacity:1" fill="#fd840e" d="M 413.5,567.5 C 416.833,567.5 420.167,567.5 423.5,567.5C 423.334,577.172 423.5,586.839 424,596.5C 433.139,587.027 442.306,577.527 451.5,568C 457.528,567.17 463.528,567.336 469.5,568.5C 460.348,578.153 451.014,587.653 441.5,597C 452.077,610.822 462.411,624.822 472.5,639C 466.5,639.667 460.5,639.667 454.5,639C 447.966,630.765 441.8,622.265 436,613.5C 432.173,608.786 428.173,608.453 424,612.5C 423.5,621.494 423.334,630.494 423.5,639.5C 418.5,639.5 413.5,639.5 408.5,639.5C 408.333,617.164 408.5,594.831 409,572.5C 410.059,570.341 411.559,568.674 413.5,567.5 Z"/></g>
<g><path style="opacity:1" fill="#fd840d" d="M 504.5,567.5 C 509.762,567.195 514.928,567.529 520,568.5C 528.512,592.039 537.012,615.539 545.5,639C 540.177,639.499 534.844,639.666 529.5,639.5C 528.013,634.555 526.68,629.555 525.5,624.5C 516.161,624.334 506.827,624.5 497.5,625C 495.743,629.434 494.077,633.934 492.5,638.5C 487.198,639.663 481.864,639.829 476.5,639C 484.518,617.281 492.352,595.448 500,573.5C 500.979,571.032 502.479,569.032 504.5,567.5 Z"/></g>
<g><path style="opacity:1" fill="#fd830a" d="M 587.5,568.5 C 603.167,568.5 618.833,568.5 634.5,568.5C 634.5,572.167 634.5,575.833 634.5,579.5C 621.989,579.171 609.655,579.505 597.5,580.5C 597.5,585.5 597.5,590.5 597.5,595.5C 606.833,595.5 616.167,595.5 625.5,595.5C 626.931,601.44 624.931,605.607 619.5,608C 612.174,608.5 604.841,608.666 597.5,608.5C 597.5,614.167 597.5,619.833 597.5,625.5C 609.655,626.495 621.989,626.829 634.5,626.5C 634.5,630.833 634.5,635.167 634.5,639.5C 617.167,639.5 599.833,639.5 582.5,639.5C 582.333,617.164 582.5,594.831 583,572.5C 583.748,570.249 585.248,568.916 587.5,568.5 Z"/></g>
<g><path style="opacity:1" fill="#fd840d" d="M 701.5,638.5 C 696.025,639.489 690.358,639.822 684.5,639.5C 680.361,631.227 675.695,623.227 670.5,615.5C 665.379,623.275 660.713,631.275 656.5,639.5C 650.642,639.822 644.975,639.489 639.5,638.5C 646.369,626.596 653.369,614.762 660.5,603C 654.048,591.93 647.215,581.097 640,570.5C 639.517,569.552 639.351,568.552 639.5,567.5C 645.206,567.171 650.872,567.505 656.5,568.5C 660.916,576.333 665.582,584 670.5,591.5C 675.292,584.084 679.959,576.584 684.5,569C 690.082,567.263 695.749,567.096 701.5,568.5C 694.368,579.933 687.368,591.433 680.5,603C 687.127,615.092 694.127,626.925 701.5,638.5 Z"/></g>
<g><path style="opacity:1" fill="#fd8410" d="M 710.5,567.5 C 723.213,567.126 735.88,567.626 748.5,569C 759.544,574.928 763.711,584.095 761,596.5C 759.167,606.333 753.333,612.167 743.5,614C 736.174,614.5 728.841,614.666 721.5,614.5C 721.5,622.833 721.5,631.167 721.5,639.5C 716.5,639.5 711.5,639.5 706.5,639.5C 706.333,616.831 706.5,594.164 707,571.5C 708.376,570.295 709.542,568.962 710.5,567.5 Z"/></g>
<g><path style="opacity:1" fill="#fc8104" d="M 779.5,567.5 C 779.5,587.167 779.5,606.833 779.5,626.5C 791.167,626.5 802.833,626.5 814.5,626.5C 814.5,630.833 814.5,635.167 814.5,639.5C 798.167,639.5 781.833,639.5 765.5,639.5C 765.5,617.5 765.5,595.5 765.5,573.5C 765.848,570.981 767.181,569.147 769.5,568C 772.817,567.502 776.15,567.335 779.5,567.5 Z"/></g>
<g><path style="opacity:1" fill="#fd830c" d="M 949.5,638.5 C 944.266,639.802 938.933,639.802 933.5,638.5C 933.035,630.761 932.201,623.094 931,615.5C 929.681,613.513 927.848,612.346 925.5,612C 919.175,611.5 912.842,611.334 906.5,611.5C 906.5,620.833 906.5,630.167 906.5,639.5C 901.5,639.5 896.5,639.5 891.5,639.5C 891.333,616.831 891.5,594.164 892,571.5C 893.214,569.951 894.714,568.785 896.5,568C 908.5,567.333 920.5,567.333 932.5,568C 949.694,573.246 954.194,584.079 946,600.5C 944.269,602.617 942.102,604.117 939.5,605C 943.058,606.892 945.558,609.725 947,613.5C 947.9,621.853 948.734,630.186 949.5,638.5 Z"/></g>
<g><path style="opacity:1" fill="#fd840e" d="M 961.5,567.5 C 977.167,567.5 992.833,567.5 1008.5,567.5C 1008.5,571.833 1008.5,576.167 1008.5,580.5C 996.167,580.5 983.833,580.5 971.5,580.5C 971.5,585.5 971.5,590.5 971.5,595.5C 980.833,595.5 990.167,595.5 999.5,595.5C 1000.56,601.204 998.564,605.371 993.5,608C 986.174,608.5 978.841,608.666 971.5,608.5C 971.5,614.5 971.5,620.5 971.5,626.5C 983.833,626.5 996.167,626.5 1008.5,626.5C 1008.5,630.833 1008.5,635.167 1008.5,639.5C 991.167,639.5 973.833,639.5 956.5,639.5C 956.333,616.831 956.5,594.164 957,571.5C 958.397,569.93 959.897,568.596 961.5,567.5 Z"/></g>
<g><path style="opacity:1" fill="#fd830c" d="M 1019.5,567.5 C 1031.5,567.333 1043.5,567.5 1055.5,568C 1070.67,571.824 1075.83,581.324 1071,596.5C 1069.5,600.667 1066.67,603.5 1062.5,605C 1066.08,606.916 1068.58,609.749 1070,613.5C 1070.72,621.162 1071.39,628.829 1072,636.5C 1072.37,637.416 1072.87,638.25 1073.5,639C 1067.92,639.806 1062.42,639.639 1057,638.5C 1055.74,631.606 1055.07,624.606 1055,617.5C 1054.22,615.714 1053.05,614.214 1051.5,613C 1044.25,611.609 1036.92,611.109 1029.5,611.5C 1029.5,620.833 1029.5,630.167 1029.5,639.5C 1024.5,639.5 1019.5,639.5 1014.5,639.5C 1014.33,616.831 1014.5,594.164 1015,571.5C 1016.4,569.93 1017.9,568.596 1019.5,567.5 Z"/></g>
<g><path style="opacity:1" fill="#fda953" d="M 587.5,568.5 C 603.325,567.504 619.325,567.17 635.5,567.5C 635.5,571.833 635.5,576.167 635.5,580.5C 622.833,580.5 610.167,580.5 597.5,580.5C 609.655,579.505 621.989,579.171 634.5,579.5C 634.5,575.833 634.5,572.167 634.5,568.5C 618.833,568.5 603.167,568.5 587.5,568.5 Z"/></g>
<g><path style="opacity:1" fill="#fffcfa" d="M 846.5,578.5 C 858.555,577.733 866.388,583.066 870,594.5C 870.788,601.556 870.455,608.556 869,615.5C 864.256,626.123 856.089,630.29 844.5,628C 836.001,624.862 831.501,618.695 831,609.5C 829.181,599.61 831.348,590.776 837.5,583C 840.324,580.921 843.324,579.421 846.5,578.5 Z"/></g>
<g><path style="opacity:1" fill="#fffdfc" d="M 144.5,580.5 C 152.611,580.065 160.611,580.565 168.5,582C 173.453,586.643 173.787,591.643 169.5,597C 167.975,598.009 166.308,598.509 164.5,598.5C 157.833,598.5 151.167,598.5 144.5,598.5C 144.5,592.5 144.5,586.5 144.5,580.5 Z"/></g>
<g><path style="opacity:1" fill="#fefdfc" d="M 721.5,580.5 C 728.589,580.116 735.589,580.616 742.5,582C 746.711,586.158 747.544,590.991 745,596.5C 744.167,598 743,599.167 741.5,600C 734.842,600.5 728.175,600.666 721.5,600.5C 721.5,593.833 721.5,587.167 721.5,580.5 Z"/></g>
<g><path style="opacity:1" fill="#fffbf7" d="M 906.5,580.5 C 913.841,580.334 921.174,580.5 928.5,581C 932.819,582.123 934.819,584.956 934.5,589.5C 934.751,593.503 933.084,596.336 929.5,598C 921.92,599.396 914.253,599.896 906.5,599.5C 906.5,593.167 906.5,586.833 906.5,580.5 Z"/></g>
<g><path style="opacity:1" fill="#fffbf8" d="M 1029.5,580.5 C 1036.84,580.334 1044.17,580.5 1051.5,581C 1055.82,582.123 1057.82,584.956 1057.5,589.5C 1057.75,593.503 1056.08,596.336 1052.5,598C 1044.92,599.396 1037.25,599.896 1029.5,599.5C 1029.5,593.167 1029.5,586.833 1029.5,580.5 Z"/></g>
<g><path style="opacity:1" fill="#fffaf4" d="M 510.5,583.5 C 514.588,592.76 517.922,602.427 520.5,612.5C 514.167,612.5 507.833,612.5 501.5,612.5C 504.302,602.762 507.302,593.096 510.5,583.5 Z"/></g>
<g><path style="opacity:1" fill="#fff9f3" d="M 302.5,583.5 C 303.497,583.47 304.164,583.97 304.5,585C 307.484,594.114 310.15,603.28 312.5,612.5C 306.132,612.83 299.798,612.496 293.5,611.5C 296.908,602.277 299.908,592.944 302.5,583.5 Z"/></g>
<g><path style="opacity:1" fill="#fecf9f" d="M 358.5,593.5 C 357.833,608.833 357.167,624.167 356.5,639.5C 356.333,623.497 356.5,607.497 357,591.5C 357.717,592.044 358.217,592.711 358.5,593.5 Z"/></g>
<g><path style="opacity:1" fill="#fc8104" d="M 573.5,596.5 C 573.5,600.167 573.5,603.833 573.5,607.5C 564.167,607.5 554.833,607.5 545.5,607.5C 545.5,604.833 545.5,602.167 545.5,599.5C 545.414,598.504 545.748,597.671 546.5,597C 555.494,596.5 564.494,596.334 573.5,596.5 Z"/></g>
<g><path style="opacity:1" fill="#fec489" d="M 144.5,580.5 C 144.5,586.5 144.5,592.5 144.5,598.5C 151.167,598.5 157.833,598.5 164.5,598.5C 157.687,599.491 150.687,599.825 143.5,599.5C 143.177,592.978 143.51,586.645 144.5,580.5 Z"/></g>
<g><path style="opacity:1" fill="#fdbf81" d="M 573.5,596.5 C 574.483,600.298 574.817,604.298 574.5,608.5C 564.5,608.5 554.5,608.5 544.5,608.5C 544.19,605.287 544.523,602.287 545.5,599.5C 545.5,602.167 545.5,604.833 545.5,607.5C 554.833,607.5 564.167,607.5 573.5,607.5C 573.5,603.833 573.5,600.167 573.5,596.5 Z"/></g>
<g><path style="opacity:1" fill="#fed5ab" d="M 597.5,625.5 C 610.167,625.5 622.833,625.5 635.5,625.5C 635.819,630.363 635.486,635.03 634.5,639.5C 634.5,635.167 634.5,630.833 634.5,626.5C 621.989,626.829 609.655,626.495 597.5,625.5 Z"/></g>
<g><path style="opacity:1" fill="#fed2a5" d="M 779.5,567.5 C 780.497,586.659 780.83,605.993 780.5,625.5C 792.012,625.172 803.346,625.505 814.5,626.5C 802.833,626.5 791.167,626.5 779.5,626.5C 779.5,606.833 779.5,587.167 779.5,567.5 Z"/></g>
<g><path style="opacity:1" fill="#fedfc0" d="M 187.5,638.5 C 188.043,638.56 188.376,638.893 188.5,639.5C 182.68,640.816 177.013,640.816 171.5,639.5C 177.026,639.821 182.36,639.488 187.5,638.5 Z"/></g>
<g><path style="opacity:1" fill="#fedebf" d="M 639.5,638.5 C 644.975,639.489 650.642,639.822 656.5,639.5C 650.654,640.817 644.654,640.817 638.5,639.5C 638.624,638.893 638.957,638.56 639.5,638.5 Z"/></g>
<g><path style="opacity:1" fill="#fedfc0" d="M 701.5,638.5 C 702.043,638.56 702.376,638.893 702.5,639.5C 696.346,640.817 690.346,640.817 684.5,639.5C 690.358,639.822 696.025,639.489 701.5,638.5 Z"/></g>
<g><path style="opacity:1" fill="#ffd1a3" d="M 765.5,573.5 C 765.5,595.5 765.5,617.5 765.5,639.5C 781.833,639.5 798.167,639.5 814.5,639.5C 798.008,640.497 781.342,640.83 764.5,640.5C 764.169,617.994 764.503,595.66 765.5,573.5 Z"/></g>
<g><path style="opacity:1" fill="#fedebe" d="M 933.5,638.5 C 938.933,639.802 944.266,639.802 949.5,638.5C 950.043,638.56 950.376,638.893 950.5,639.5C 947.667,639.833 944.833,640.167 942,640.5C 938.748,640.481 935.915,639.814 933.5,638.5 Z"/></g>
<g><path style="opacity:1" fill="#fd8c21" d="M 85.5,659.5 C 90.1785,659.334 94.8452,659.501 99.5,660C 102.67,664.454 101.67,667.787 96.5,670C 99.23,672.13 101.23,674.797 102.5,678C 101.056,678.781 99.723,678.614 98.5,677.5C 97.3649,675.201 96.0316,673.034 94.5,671C 92.5273,670.505 90.5273,670.338 88.5,670.5C 88.5,673.167 88.5,675.833 88.5,678.5C 87.5,678.5 86.5,678.5 85.5,678.5C 85.5,672.167 85.5,665.833 85.5,659.5 Z"/></g>
<g><path style="opacity:1" fill="#fd891b" d="M 106.5,658.5 C 107.5,658.5 108.5,658.5 109.5,658.5C 109.5,665.167 109.5,671.833 109.5,678.5C 108.5,678.5 107.5,678.5 106.5,678.5C 106.5,671.833 106.5,665.167 106.5,658.5 Z"/></g>
<g><path style="opacity:1" fill="#fd8c20" d="M 126.5,675.5 C 129.358,676.166 132.358,676.833 135.5,677.5C 131.555,678.491 127.555,678.824 123.5,678.5C 123.5,672.167 123.5,665.833 123.5,659.5C 124.5,659.5 125.5,659.5 126.5,659.5C 126.5,664.833 126.5,670.167 126.5,675.5 Z"/></g>
<g><path style="opacity:1" fill="#fd8817" d="M 173.5,659.5 C 175.456,665.412 176.123,671.745 175.5,678.5C 174.325,678.719 173.325,678.386 172.5,677.5C 169.823,673.471 167.156,669.471 164.5,665.5C 164.44,664.957 164.107,664.624 163.5,664.5C 162.507,669.12 162.173,673.786 162.5,678.5C 160.544,672.588 159.877,666.255 160.5,659.5C 161.978,659.238 163.311,659.571 164.5,660.5C 167.333,664.833 170.167,669.167 173,673.5C 173.499,668.845 173.666,664.179 173.5,659.5 Z"/></g>
<g><path style="opacity:1" fill="#fdb367" d="M 173.5,659.5 C 174.209,658.596 175.209,658.263 176.5,658.5C 176.824,665.354 176.491,672.021 175.5,678.5C 176.123,671.745 175.456,665.412 173.5,659.5 Z"/></g>
<g><path style="opacity:1" fill="#fd8815" d="M 263.5,659.5 C 264.043,659.56 264.376,659.893 264.5,660.5C 260.555,661.491 256.555,661.824 252.5,661.5C 252.5,663.167 252.5,664.833 252.5,666.5C 255.689,667.166 259.023,667.833 262.5,668.5C 259.023,669.167 255.689,669.834 252.5,670.5C 252.5,672.5 252.5,674.5 252.5,676.5C 256.555,676.176 260.555,676.509 264.5,677.5C 259.544,678.494 254.544,678.827 249.5,678.5C 249.5,672.167 249.5,665.833 249.5,659.5C 254.167,659.5 258.833,659.5 263.5,659.5 Z"/></g>
<g><path style="opacity:1" fill="#fd932a" d="M 268.5,658.5 C 269.5,658.5 270.5,658.5 271.5,658.5C 271.5,665.167 271.5,671.833 271.5,678.5C 270.5,678.5 269.5,678.5 268.5,678.5C 268.5,671.833 268.5,665.167 268.5,658.5 Z"/></g>
<g><path style="opacity:1" fill="#fdbe7c" d="M 292.5,659.5 C 290.872,663.762 289.872,668.429 289.5,673.5C 288.893,673.376 288.56,673.043 288.5,672.5C 289.486,668.03 289.819,663.363 289.5,658.5C 290.791,658.263 291.791,658.596 292.5,659.5 Z"/></g>
<g><path style="opacity:1" fill="#fd8b1d" d="M 309.5,675.5 C 312.358,676.166 315.358,676.833 318.5,677.5C 314.555,678.491 310.555,678.824 306.5,678.5C 306.5,671.833 306.5,665.167 306.5,658.5C 307.5,658.5 308.5,658.5 309.5,658.5C 309.5,664.167 309.5,669.833 309.5,675.5 Z"/></g>
<g><path style="opacity:1" fill="#fd8c20" d="M 364.5,659.5 C 368.514,659.334 372.514,659.501 376.5,660C 382.969,665.791 382.969,671.791 376.5,678C 372.514,678.499 368.514,678.666 364.5,678.5C 364.5,672.167 364.5,665.833 364.5,659.5 Z"/></g>
<g><path style="opacity:1" fill="#fdba75" d="M 455.5,659.5 C 453.544,665.412 452.877,671.745 453.5,678.5C 452.509,672.021 452.176,665.354 452.5,658.5C 453.791,658.263 454.791,658.596 455.5,659.5 Z"/></g>
<g><path style="opacity:1" fill="#fc8915" d="M 455.5,659.5 C 456.123,666.255 455.456,672.588 453.5,678.5C 452.877,671.745 453.544,665.412 455.5,659.5 Z"/></g>
<g><path style="opacity:1" fill="#fd8715" d="M 482.5,659.5 C 497.471,657.632 501.805,663.466 495.5,677C 491.3,678.367 486.967,678.867 482.5,678.5C 482.5,672.167 482.5,665.833 482.5,659.5 Z"/></g>
<g><path style="opacity:1" fill="#fd8103" d="M 503.5,659.5 C 505.456,665.412 506.123,671.745 505.5,678.5C 503.544,672.588 502.877,666.255 503.5,659.5 Z"/></g>
<g><path style="opacity:1" fill="#fc850c" d="M 531.5,659.5 C 533.456,665.412 534.123,671.745 533.5,678.5C 531.544,672.588 530.877,666.255 531.5,659.5 Z"/></g>
<g><path style="opacity:1" fill="#feb368" d="M 531.5,659.5 C 532.209,658.596 533.209,658.263 534.5,658.5C 534.824,665.354 534.491,672.021 533.5,678.5C 534.123,671.745 533.456,665.412 531.5,659.5 Z"/></g>
<g><path style="opacity:1" fill="#feac5b" d="M 549.5,659.5 C 546.5,659.5 543.5,659.5 540.5,659.5C 540.5,665.833 540.5,672.167 540.5,678.5C 539.509,672.021 539.176,665.354 539.5,658.5C 543.042,658.187 546.375,658.521 549.5,659.5 Z"/></g>
<g><path style="opacity:1" fill="#fd8a1c" d="M 549.5,659.5 C 554.361,660.376 556.694,663.376 556.5,668.5C 555.134,677.831 549.8,681.165 540.5,678.5C 540.5,672.167 540.5,665.833 540.5,659.5C 543.5,659.5 546.5,659.5 549.5,659.5 Z"/></g>
<g><path style="opacity:1" fill="#fd9028" d="M 573.5,658.5 C 574.5,658.5 575.5,658.5 576.5,658.5C 576.861,664.593 576.361,670.593 575,676.5C 570.046,680.677 565.38,680.343 561,675.5C 560.501,670.177 560.334,664.844 560.5,659.5C 561.5,659.5 562.5,659.5 563.5,659.5C 563.334,664.511 563.501,669.511 564,674.5C 567,677.167 570,677.167 573,674.5C 573.499,669.177 573.666,663.844 573.5,658.5 Z"/></g>
<g><path style="opacity:1" fill="#fd8a19" d="M 584.5,666.5 C 587.689,667.166 591.023,667.833 594.5,668.5C 591.023,669.167 587.689,669.834 584.5,670.5C 584.5,672.5 584.5,674.5 584.5,676.5C 588.555,676.176 592.555,676.509 596.5,677.5C 591.544,678.494 586.544,678.827 581.5,678.5C 581.5,672.167 581.5,665.833 581.5,659.5C 586.544,659.173 591.544,659.506 596.5,660.5C 592.555,661.491 588.555,661.824 584.5,661.5C 584.5,663.167 584.5,664.833 584.5,666.5 Z"/></g>
<g><path style="opacity:1" fill="#fd8c20" d="M 600.5,658.5 C 601.5,658.5 602.5,658.5 603.5,658.5C 603.5,664.5 603.5,670.5 603.5,676.5C 606.572,676.183 609.572,676.516 612.5,677.5C 608.555,678.491 604.555,678.824 600.5,678.5C 600.5,671.833 600.5,665.167 600.5,658.5 Z"/></g>
<g><path style="opacity:1" fill="#fd932b" d="M 616.5,658.5 C 617.5,658.5 618.5,658.5 619.5,658.5C 619.5,664.5 619.5,670.5 619.5,676.5C 622.898,676.18 626.232,676.513 629.5,677.5C 625.217,678.492 620.884,678.826 616.5,678.5C 616.5,671.833 616.5,665.167 616.5,658.5 Z"/></g>
<g><path style="opacity:1" fill="#fd942f" d="M 677.5,658.5 C 678.5,658.5 679.5,658.5 680.5,658.5C 680.5,665.167 680.5,671.833 680.5,678.5C 679.5,678.5 678.5,678.5 677.5,678.5C 677.5,671.833 677.5,665.167 677.5,658.5 Z"/></g>
<g><path style="opacity:1" fill="#fd840b" d="M 689.5,661.5 C 688.539,663.265 688.205,665.265 688.5,667.5C 692.167,667.5 695.833,667.5 699.5,667.5C 699.5,668.167 699.5,668.833 699.5,669.5C 695.833,669.5 692.167,669.5 688.5,669.5C 688.5,671.833 688.5,674.167 688.5,676.5C 692.5,676.5 696.5,676.5 700.5,676.5C 696.285,678.436 691.619,679.103 686.5,678.5C 686.5,672.167 686.5,665.833 686.5,659.5C 691.214,659.173 695.88,659.507 700.5,660.5C 696.893,661.489 693.226,661.823 689.5,661.5 Z"/></g>
<g><path style="opacity:1" fill="#fdba75" d="M 736.5,659.5 C 734.544,665.412 733.877,671.745 734.5,678.5C 733.509,672.021 733.176,665.354 733.5,658.5C 734.791,658.263 735.791,658.596 736.5,659.5 Z"/></g>
<g><path style="opacity:1" fill="#fd8914" d="M 736.5,659.5 C 737.123,666.255 736.456,672.588 734.5,678.5C 733.877,671.745 734.544,665.412 736.5,659.5 Z"/></g>
<g><path style="opacity:1" fill="#fd850c" d="M 745.5,661.5 C 744.539,663.265 744.205,665.265 744.5,667.5C 748.167,667.5 751.833,667.5 755.5,667.5C 755.5,668.167 755.5,668.833 755.5,669.5C 751.833,669.5 748.167,669.5 744.5,669.5C 744.5,671.833 744.5,674.167 744.5,676.5C 748.5,676.5 752.5,676.5 756.5,676.5C 752.285,678.436 747.619,679.103 742.5,678.5C 742.5,672.167 742.5,665.833 742.5,659.5C 747.214,659.173 751.88,659.507 756.5,660.5C 752.893,661.489 749.226,661.823 745.5,661.5 Z"/></g>
<g><path style="opacity:1" fill="#feb368" d="M 770.5,659.5 C 771.209,658.596 772.209,658.263 773.5,658.5C 773.5,663.5 773.5,668.5 773.5,673.5C 773.138,668.579 772.138,663.913 770.5,659.5 Z"/></g>
<g><path style="opacity:1" fill="#fdc184" d="M 783.5,659.5 C 784.209,658.596 785.209,658.263 786.5,658.5C 786.821,664.026 786.488,669.36 785.5,674.5C 786.108,669.056 785.442,664.056 783.5,659.5 Z"/></g>
<g><path style="opacity:1" fill="#fd8817" d="M 795.5,665.5 C 795.44,664.957 795.107,664.624 794.5,664.5C 793.507,669.12 793.173,673.786 793.5,678.5C 791.544,672.588 790.877,666.255 791.5,659.5C 793.39,659.297 794.89,659.963 796,661.5C 798.667,665.5 801.333,669.5 804,673.5C 804.172,668.798 804.672,664.132 805.5,659.5C 806.496,665.798 806.83,672.132 806.5,678.5C 805.178,678.67 804.011,678.337 803,677.5C 800.275,673.615 797.775,669.615 795.5,665.5 Z"/></g>
<g><path style="opacity:1" fill="#fd8c21" d="M 812.5,659.5 C 824.646,656.82 829.813,661.487 828,673.5C 827.215,675.286 826.049,676.786 824.5,678C 820.514,678.499 816.514,678.666 812.5,678.5C 812.5,672.167 812.5,665.833 812.5,659.5 Z"/></g>
<g><path style="opacity:1" fill="#fdba76" d="M 857.5,659.5 C 855.869,663.232 854.869,667.232 854.5,671.5C 854.5,667.167 854.5,662.833 854.5,658.5C 855.791,658.263 856.791,658.596 857.5,659.5 Z"/></g>
<g><path style="opacity:1" fill="#fd8a1c" d="M 854.5,671.5 C 854.869,667.232 855.869,663.232 857.5,659.5C 857.666,664.844 857.499,670.177 857,675.5C 852.161,680.769 847.495,680.769 843,675.5C 842.171,670.136 842.337,664.802 843.5,659.5C 844.097,664.911 844.931,670.245 846,675.5C 850.701,677.717 853.534,676.383 854.5,671.5 Z"/></g>
<g><path style="opacity:1" fill="#fe912c" d="M 887.5,658.5 C 892.311,657.74 895.978,659.407 898.5,663.5C 896.731,664.627 895.397,664.127 894.5,662C 892.167,661.333 889.833,661.333 887.5,662C 886.167,663.333 886.167,664.667 887.5,666C 891.401,666.676 894.901,668.176 898,670.5C 898.944,673.347 898.444,675.847 896.5,678C 891.508,680.644 887.341,679.81 884,675.5C 883.251,674.365 883.417,673.365 884.5,672.5C 886.992,676.266 890.326,677.266 894.5,675.5C 895.747,673.994 895.747,672.494 894.5,671C 890.599,670.324 887.099,668.824 884,666.5C 882.78,662.707 883.947,660.04 887.5,658.5 Z"/></g>
<g><path style="opacity:1" fill="#fd8816" d="M 917.5,659.5 C 914.316,661.414 910.649,662.08 906.5,661.5C 906.5,663.5 906.5,665.5 906.5,667.5C 910.329,666.931 913.663,667.598 916.5,669.5C 912.833,669.5 909.167,669.5 905.5,669.5C 905.5,671.833 905.5,674.167 905.5,676.5C 909.833,676.5 914.167,676.5 918.5,676.5C 913.944,678.442 908.944,679.108 903.5,678.5C 903.5,672.167 903.5,665.833 903.5,659.5C 908.167,659.5 912.833,659.5 917.5,659.5 Z"/></g>
<g><path style="opacity:1" fill="#fd912c" d="M 934.5,659.5 C 940.042,663.253 939.708,666.753 933.5,670C 936.23,672.13 938.23,674.797 939.5,678C 938.056,678.781 936.723,678.614 935.5,677.5C 933.758,672.741 930.425,670.407 925.5,670.5C 925.5,673.167 925.5,675.833 925.5,678.5C 924.5,678.5 923.5,678.5 922.5,678.5C 922.5,672.167 922.5,665.833 922.5,659.5C 926.5,659.5 930.5,659.5 934.5,659.5 Z"/></g>
<g><path style="opacity:1" fill="#fd8611" d="M 957.5,659.5 C 954.316,661.414 950.649,662.08 946.5,661.5C 945.539,663.265 945.205,665.265 945.5,667.5C 949.167,667.5 952.833,667.5 956.5,667.5C 956.5,668.167 956.5,668.833 956.5,669.5C 952.833,669.5 949.167,669.5 945.5,669.5C 945.5,671.833 945.5,674.167 945.5,676.5C 949.833,676.5 954.167,676.5 958.5,676.5C 953.944,678.442 948.944,679.108 943.5,678.5C 943.5,672.167 943.5,665.833 943.5,659.5C 948.167,659.5 952.833,659.5 957.5,659.5 Z"/></g>
<g><path style="opacity:1" fill="#ffdebd" d="M 983.5,659.5 C 979.5,659.5 975.5,659.5 971.5,659.5C 971.5,665.833 971.5,672.167 971.5,678.5C 970.509,672.021 970.176,665.354 970.5,658.5C 975.032,658.182 979.366,658.515 983.5,659.5 Z"/></g>
<g><path style="opacity:1" fill="#fd8d21" d="M 983.5,659.5 C 987.146,660.462 988.313,662.795 987,666.5C 985.786,668.049 984.286,669.215 982.5,670C 985.07,672.067 987.07,674.567 988.5,677.5C 987.833,677.833 987.167,678.167 986.5,678.5C 984.283,676.434 982.283,674.1 980.5,671.5C 978.591,670.652 976.591,670.318 974.5,670.5C 974.5,673.167 974.5,675.833 974.5,678.5C 973.5,678.5 972.5,678.5 971.5,678.5C 971.5,672.167 971.5,665.833 971.5,659.5C 975.5,659.5 979.5,659.5 983.5,659.5 Z"/></g>
<g><path style="opacity:1" fill="#fedebb" d="M 1006.5,659.5 C 1001.83,659.5 997.167,659.5 992.5,659.5C 992.5,665.833 992.5,672.167 992.5,678.5C 991.509,672.021 991.176,665.354 991.5,658.5C 996.695,658.179 1001.69,658.513 1006.5,659.5 Z"/></g>
<g><path style="opacity:1" fill="#fd8a1b" d="M 1006.5,659.5 C 1003.32,661.414 999.649,662.08 995.5,661.5C 995.5,663.5 995.5,665.5 995.5,667.5C 1010.17,668.167 1010.17,668.833 995.5,669.5C 995.5,671.833 995.5,674.167 995.5,676.5C 999.555,676.176 1003.55,676.509 1007.5,677.5C 1002.54,678.494 997.544,678.827 992.5,678.5C 992.5,672.167 992.5,665.833 992.5,659.5C 997.167,659.5 1001.83,659.5 1006.5,659.5 Z"/></g>
<g><path style="opacity:1" fill="#fd922a" d="M 1011.5,658.5 C 1012.5,658.5 1013.5,658.5 1014.5,658.5C 1014.5,665.167 1014.5,671.833 1014.5,678.5C 1013.5,678.5 1012.5,678.5 1011.5,678.5C 1011.5,671.833 1011.5,665.167 1011.5,658.5 Z"/></g>
<g><path style="opacity:1" fill="#fd850d" d="M 1042.5,661.5 C 1041.54,663.265 1041.21,665.265 1041.5,667.5C 1045.17,667.5 1048.83,667.5 1052.5,667.5C 1052.5,668.167 1052.5,668.833 1052.5,669.5C 1048.83,669.5 1045.17,669.5 1041.5,669.5C 1041.5,671.833 1041.5,674.167 1041.5,676.5C 1045.83,676.5 1050.17,676.5 1054.5,676.5C 1049.94,678.442 1044.94,679.108 1039.5,678.5C 1039.5,672.167 1039.5,665.833 1039.5,659.5C 1044.21,659.173 1048.88,659.507 1053.5,660.5C 1049.89,661.489 1046.23,661.823 1042.5,661.5 Z"/></g>
<g><path style="opacity:1" fill="#fd8716" d="M 1062.5,665.5 C 1062.44,664.957 1062.11,664.624 1061.5,664.5C 1060.51,669.12 1060.17,673.786 1060.5,678.5C 1058.54,672.588 1057.88,666.255 1058.5,659.5C 1060.39,659.297 1061.89,659.963 1063,661.5C 1065.67,665.5 1068.33,669.5 1071,673.5C 1071.17,668.798 1071.67,664.132 1072.5,659.5C 1073.5,665.798 1073.83,672.132 1073.5,678.5C 1072.18,678.67 1071.01,678.337 1070,677.5C 1067.28,673.615 1064.78,669.615 1062.5,665.5 Z"/></g>
<g><path style="opacity:1" fill="#fda853" d="M 503.5,659.5 C 504.209,658.596 505.209,658.263 506.5,658.5C 506.824,665.354 506.491,672.021 505.5,678.5C 506.123,671.745 505.456,665.412 503.5,659.5 Z"/></g>
<g><path style="opacity:1" fill="#fff7f0" d="M 88.5,661.5 C 91.5184,661.335 94.5184,661.502 97.5,662C 98.8333,663.667 98.8333,665.333 97.5,667C 94.5184,667.498 91.5184,667.665 88.5,667.5C 88.5,665.5 88.5,663.5 88.5,661.5 Z"/></g>
<g><path style="opacity:1" fill="#fff8f1" d="M 367.5,661.5 C 373.992,659.723 377.659,662.056 378.5,668.5C 377.926,675.295 374.259,677.962 367.5,676.5C 367.5,671.5 367.5,666.5 367.5,661.5 Z"/></g>
<g><path style="opacity:1" fill="#fd912a" d="M 426.5,658.5 C 436.482,657.982 440.649,662.648 439,672.5C 435.904,678.966 431.071,680.799 424.5,678C 418.647,670.672 419.314,664.172 426.5,658.5 Z"/></g>
<g><path style="opacity:1" fill="#fffaf6" d="M 426.5,661.5 C 432.875,660.049 436.208,662.549 436.5,669C 436.741,673.926 434.407,676.426 429.5,676.5C 425.119,675.773 423.119,673.106 423.5,668.5C 423.667,667.167 423.833,665.833 424,664.5C 425.045,663.627 425.878,662.627 426.5,661.5 Z"/></g>
<g><path style="opacity:1" fill="#fdc891" d="M 485.5,661.5 C 485.5,666.167 485.5,670.833 485.5,675.5C 487.5,675.5 489.5,675.5 491.5,675.5C 489.393,676.468 487.059,676.802 484.5,676.5C 484.179,671.305 484.513,666.305 485.5,661.5 Z"/></g>
<g><path style="opacity:1" fill="#fefcfa" d="M 485.5,661.5 C 494.328,660.839 497.495,664.839 495,673.5C 494.184,674.823 493.017,675.489 491.5,675.5C 489.5,675.5 487.5,675.5 485.5,675.5C 485.5,670.833 485.5,666.167 485.5,661.5 Z"/></g>
<g><path style="opacity:1" fill="#fffaf5" d="M 542.5,661.5 C 553.438,661.373 556.105,666.04 550.5,675.5C 547.916,676.393 545.249,676.726 542.5,676.5C 542.5,671.5 542.5,666.5 542.5,661.5 Z"/></g>
<g><path style="opacity:1" fill="#fffbf8" d="M 815.5,661.5 C 822.1,659.946 825.434,662.446 825.5,669C 825.095,675.063 821.761,677.563 815.5,676.5C 815.5,671.5 815.5,666.5 815.5,661.5 Z"/></g>
<g><path style="opacity:1" fill="#fff8f2" d="M 925.5,661.5 C 928.518,661.335 931.518,661.502 934.5,662C 935.991,664.022 935.658,665.688 933.5,667C 930.854,667.497 928.187,667.664 925.5,667.5C 925.5,665.5 925.5,663.5 925.5,661.5 Z"/></g>
<g><path style="opacity:1" fill="#ffddbc" d="M 957.5,659.5 C 952.833,659.5 948.167,659.5 943.5,659.5C 943.5,665.833 943.5,672.167 943.5,678.5C 942.509,672.021 942.176,665.354 942.5,658.5C 947.695,658.179 952.695,658.513 957.5,659.5 Z"/></g>
<g><path style="opacity:1" fill="#fff8f2" d="M 974.5,661.5 C 977.518,661.335 980.518,661.502 983.5,662C 984.833,663.667 984.833,665.333 983.5,667C 980.518,667.498 977.518,667.665 974.5,667.5C 974.5,665.5 974.5,663.5 974.5,661.5 Z"/></g>
<g><path style="opacity:1" fill="#fd9028" d="M 510.5,659.5 C 511.5,659.5 512.5,659.5 513.5,659.5C 514.572,664.791 516.405,669.791 519,674.5C 520.735,669.794 522.569,665.127 524.5,660.5C 525.5,659.167 526.5,659.167 527.5,660.5C 524.971,666.086 522.638,671.753 520.5,677.5C 519.311,678.429 517.978,678.762 516.5,678.5C 514.5,672.167 512.5,665.833 510.5,659.5 Z"/></g>
<g><path style="opacity:1" fill="#ffddbb" d="M 263.5,659.5 C 258.833,659.5 254.167,659.5 249.5,659.5C 249.5,665.833 249.5,672.167 249.5,678.5C 248.509,672.021 248.176,665.354 248.5,658.5C 253.695,658.179 258.695,658.513 263.5,659.5 Z"/></g>
<g><path style="opacity:1" fill="#feddbb" d="M 917.5,659.5 C 912.833,659.5 908.167,659.5 903.5,659.5C 903.5,665.833 903.5,672.167 903.5,678.5C 902.509,672.021 902.176,665.354 902.5,658.5C 907.695,658.179 912.695,658.513 917.5,659.5 Z"/></g>
<g><path style="opacity:1" fill="#fdb56b" d="M 164.5,665.5 C 163.833,669.833 163.167,674.167 162.5,678.5C 162.173,673.786 162.507,669.12 163.5,664.5C 164.107,664.624 164.44,664.957 164.5,665.5 Z"/></g>
<g><path style="opacity:1" fill="#fd8e25" d="M 145.5,659.5 C 147.144,659.286 148.644,659.62 150,660.5C 152.67,666.345 154.836,672.345 156.5,678.5C 155.5,678.5 154.5,678.5 153.5,678.5C 153.528,676.418 152.861,674.584 151.5,673C 148.773,672.182 146.106,672.348 143.5,673.5C 143.047,675.565 142.047,677.232 140.5,678.5C 140.167,677.833 139.833,677.167 139.5,676.5C 141.506,670.815 143.506,665.149 145.5,659.5 Z"/></g>
<g><path style="opacity:1" fill="#fff1e4" d="M 147.5,662.5 C 149.02,664.89 150.02,667.557 150.5,670.5C 148.396,670.799 146.396,670.466 144.5,669.5C 145.702,667.22 146.702,664.886 147.5,662.5 Z"/></g>
<g><path style="opacity:1" fill="#fd912a" d="M 181.5,658.5 C 182.5,658.5 183.5,658.5 184.5,658.5C 184.335,661.518 184.502,664.518 185,667.5C 187.5,665 190,662.5 192.5,660C 193.833,659.333 195.167,659.333 196.5,660C 194.167,662.333 191.833,664.667 189.5,667C 192.167,670.667 194.833,674.333 197.5,678C 196.056,678.781 194.723,678.614 193.5,677.5C 191.5,674.833 189.5,672.167 187.5,669.5C 186.522,669.977 185.689,670.643 185,671.5C 184.503,673.81 184.337,676.143 184.5,678.5C 183.5,678.5 182.5,678.5 181.5,678.5C 181.5,671.833 181.5,665.167 181.5,658.5 Z"/></g>
<g><path style="opacity:1" fill="#fd891b" d="M 288.5,672.5 C 288.56,673.043 288.893,673.376 289.5,673.5C 289.872,668.429 290.872,663.762 292.5,659.5C 292.5,665.833 292.5,672.167 292.5,678.5C 290.61,678.703 289.11,678.037 288,676.5C 285.333,672.5 282.667,668.5 280,664.5C 279.828,669.202 279.328,673.868 278.5,678.5C 277.504,672.202 277.17,665.868 277.5,659.5C 278.822,659.33 279.989,659.663 281,660.5C 283.725,664.385 286.225,668.385 288.5,672.5 Z"/></g>
<g><path style="opacity:1" fill="#fdc286" d="M 795.5,665.5 C 794.833,669.833 794.167,674.167 793.5,678.5C 793.173,673.786 793.507,669.12 794.5,664.5C 795.107,664.624 795.44,664.957 795.5,665.5 Z"/></g>
<g><path style="opacity:1" fill="#ffdebd" d="M 934.5,659.5 C 930.5,659.5 926.5,659.5 922.5,659.5C 922.5,665.833 922.5,672.167 922.5,678.5C 921.509,672.021 921.176,665.354 921.5,658.5C 926.032,658.182 930.366,658.515 934.5,659.5 Z"/></g>
<g><path style="opacity:1" fill="#fd8d24" d="M 207.5,659.5 C 208.978,659.238 210.311,659.571 211.5,660.5C 213.638,666.247 215.971,671.914 218.5,677.5C 218,677.833 217.5,678.167 217,678.5C 215.351,677.214 214.185,675.547 213.5,673.5C 210.894,672.348 208.227,672.182 205.5,673C 204.139,674.584 203.472,676.418 203.5,678.5C 202.5,678.5 201.5,678.5 200.5,678.5C 202.241,671.943 204.574,665.609 207.5,659.5 Z"/></g>
<g><path style="opacity:1" fill="#ffefdf" d="M 208.5,662.5 C 210.059,664.608 211.392,666.941 212.5,669.5C 210.604,670.466 208.604,670.799 206.5,670.5C 206.963,667.779 207.629,665.112 208.5,662.5 Z"/></g>
<g><path style="opacity:1" fill="#fd8e25" d="M 328.5,659.5 C 330.144,659.286 331.644,659.62 333,660.5C 335.67,666.345 337.836,672.345 339.5,678.5C 338.5,678.5 337.5,678.5 336.5,678.5C 336.701,674.207 334.701,672.207 330.5,672.5C 329.167,672.833 327.833,673.167 326.5,673.5C 325.926,675.059 325.26,676.559 324.5,678C 323.5,678.667 322.5,678.667 321.5,678C 324.13,671.943 326.463,665.776 328.5,659.5 Z"/></g>
<g><path style="opacity:1" fill="#ffeddb" d="M 330.5,662.5 C 332.267,664.792 333.267,667.458 333.5,670.5C 331.396,670.799 329.396,670.466 327.5,669.5C 328.702,667.22 329.702,664.886 330.5,662.5 Z"/></g>
<g><path style="opacity:1" fill="#fd8a1b" d="M 472.5,671.5 C 472.783,672.289 473.283,672.956 474,673.5C 474.499,668.845 474.666,664.179 474.5,659.5C 476.456,665.412 477.123,671.745 476.5,678.5C 475.178,678.67 474.011,678.337 473,677.5C 470.637,673.655 468.137,669.989 465.5,666.5C 465.217,665.711 464.717,665.044 464,664.5C 463.501,669.155 463.334,673.821 463.5,678.5C 461.544,672.588 460.877,666.255 461.5,659.5C 463.39,659.297 464.89,659.963 466,661.5C 468.03,665.009 470.196,668.342 472.5,671.5 Z"/></g>
<g><path style="opacity:1" fill="#fedebe" d="M 465.5,666.5 C 464.833,670.5 464.167,674.5 463.5,678.5C 463.334,673.821 463.501,669.155 464,664.5C 464.717,665.044 465.217,665.711 465.5,666.5 Z"/></g>
<g><path style="opacity:1" fill="#fdcc98" d="M 474.5,659.5 C 474.666,664.179 474.499,668.845 474,673.5C 473.283,672.956 472.783,672.289 472.5,671.5C 473.167,667.5 473.833,663.5 474.5,659.5 Z"/></g>
<g><path style="opacity:1" fill="#fed7af" d="M 689.5,661.5 C 689.5,663.167 689.5,664.833 689.5,666.5C 693.042,666.187 696.375,666.521 699.5,667.5C 695.833,667.5 692.167,667.5 688.5,667.5C 688.205,665.265 688.539,663.265 689.5,661.5 Z"/></g>
<g><path style="opacity:1" fill="#fe9029" d="M 717.5,658.5 C 720.649,658.211 723.649,658.711 726.5,660C 728.037,661.11 728.703,662.61 728.5,664.5C 726.318,662.912 723.818,661.912 721,661.5C 717.056,661.095 715.89,662.595 717.5,666C 721.101,666.94 724.601,668.107 728,669.5C 730.291,672.835 729.791,675.668 726.5,678C 719.935,681.045 715.601,679.211 713.5,672.5C 715.906,674.211 718.573,675.545 721.5,676.5C 725.534,676.723 726.868,675.057 725.5,671.5C 721.539,670.648 718.039,668.981 715,666.5C 714.018,663.225 714.851,660.559 717.5,658.5 Z"/></g>
<g><path style="opacity:1" fill="#fed7af" d="M 745.5,661.5 C 745.5,663.167 745.5,664.833 745.5,666.5C 749.042,666.187 752.375,666.521 755.5,667.5C 751.833,667.5 748.167,667.5 744.5,667.5C 744.205,665.265 744.539,663.265 745.5,661.5 Z"/></g>
<g><path style="opacity:1" fill="#ffd1a3" d="M 946.5,661.5 C 946.5,663.167 946.5,664.833 946.5,666.5C 950.042,666.187 953.375,666.521 956.5,667.5C 952.833,667.5 949.167,667.5 945.5,667.5C 945.205,665.265 945.539,663.265 946.5,661.5 Z"/></g>
<g><path style="opacity:1" fill="#fd9028" d="M 1023.5,658.5 C 1027.19,657.971 1030.36,658.971 1033,661.5C 1033.19,665.26 1032.36,665.426 1030.5,662C 1028.17,661.333 1025.83,661.333 1023.5,662C 1022.17,663.333 1022.17,664.667 1023.5,666C 1027.4,666.676 1030.9,668.176 1034,670.5C 1034.63,678.008 1031.13,680.842 1023.5,679C 1020.41,677.654 1019.41,675.487 1020.5,672.5C 1021.84,673.347 1022.84,674.513 1023.5,676C 1025.83,676.667 1028.17,676.667 1030.5,676C 1031.83,674.333 1031.83,672.667 1030.5,671C 1026.55,670.464 1023.05,668.964 1020,666.5C 1019.28,662.946 1020.45,660.28 1023.5,658.5 Z"/></g>
<g><path style="opacity:1" fill="#fed3a7" d="M 1042.5,661.5 C 1042.5,663.167 1042.5,664.833 1042.5,666.5C 1046.04,666.187 1049.38,666.521 1052.5,667.5C 1048.83,667.5 1045.17,667.5 1041.5,667.5C 1041.21,665.265 1041.54,663.265 1042.5,661.5 Z"/></g>
<g><path style="opacity:1" fill="#fd8e25" d="M 405.5,658.5 C 410.583,657.386 414.249,659.053 416.5,663.5C 414.731,664.627 413.397,664.127 412.5,662C 410.167,661.333 407.833,661.333 405.5,662C 404.167,663.333 404.167,664.667 405.5,666C 409.401,666.676 412.901,668.176 416,670.5C 417.056,677.746 413.889,680.58 406.5,679C 403.466,677.809 401.799,675.642 401.5,672.5C 403.906,674.211 406.573,675.545 409.5,676.5C 414.057,676.172 415.057,674.339 412.5,671C 409.28,670.284 406.28,669.117 403.5,667.5C 401.724,663.77 402.391,660.77 405.5,658.5 Z"/></g>
<g><path style="opacity:1" fill="#fdc387" d="M 1062.5,665.5 C 1061.83,669.833 1061.17,674.167 1060.5,678.5C 1060.17,673.786 1060.51,669.12 1061.5,664.5C 1062.11,664.624 1062.44,664.957 1062.5,665.5 Z"/></g>
<g><path style="opacity:1" fill="#fed6ae" d="M 252.5,666.5 C 256.167,666.5 259.833,666.5 263.5,666.5C 263.5,667.833 263.5,669.167 263.5,670.5C 259.833,670.5 256.167,670.5 252.5,670.5C 255.689,669.834 259.023,669.167 262.5,668.5C 259.023,667.833 255.689,667.166 252.5,666.5 Z"/></g>
<g><path style="opacity:1" fill="#fed6ae" d="M 584.5,666.5 C 588.167,666.5 591.833,666.5 595.5,666.5C 595.5,667.833 595.5,669.167 595.5,670.5C 591.833,670.5 588.167,670.5 584.5,670.5C 587.689,669.834 591.023,669.167 594.5,668.5C 591.023,667.833 587.689,667.166 584.5,666.5 Z"/></g>
<g><path style="opacity:1" fill="#fdd6ae" d="M 699.5,669.5 C 696.375,670.479 693.042,670.813 689.5,670.5C 689.5,672.167 689.5,673.833 689.5,675.5C 693.371,675.185 697.038,675.518 700.5,676.5C 696.5,676.5 692.5,676.5 688.5,676.5C 688.5,674.167 688.5,671.833 688.5,669.5C 692.167,669.5 695.833,669.5 699.5,669.5 Z"/></g>
<g><path style="opacity:1" fill="#fdd6af" d="M 755.5,669.5 C 752.375,670.479 749.042,670.813 745.5,670.5C 745.5,672.167 745.5,673.833 745.5,675.5C 749.371,675.185 753.038,675.518 756.5,676.5C 752.5,676.5 748.5,676.5 744.5,676.5C 744.5,674.167 744.5,671.833 744.5,669.5C 748.167,669.5 751.833,669.5 755.5,669.5 Z"/></g>
<g><path style="opacity:1" fill="#fe8f28" d="M 874.5,672.5 C 874.56,673.043 874.893,673.376 875.5,673.5C 876.493,668.88 876.827,664.214 876.5,659.5C 878.456,665.412 879.123,671.745 878.5,678.5C 876.61,678.703 875.11,678.037 874,676.5C 871.829,672.156 869.163,668.156 866,664.5C 865.501,669.155 865.334,673.821 865.5,678.5C 864.5,678.5 863.5,678.5 862.5,678.5C 862.5,672.167 862.5,665.833 862.5,659.5C 864.144,659.286 865.644,659.62 867,660.5C 869.725,664.385 872.225,668.385 874.5,672.5 Z"/></g>
<g><path style="opacity:1" fill="#fdbe7f" d="M 876.5,659.5 C 876.827,664.214 876.493,668.88 875.5,673.5C 874.893,673.376 874.56,673.043 874.5,672.5C 875.167,668.167 875.833,663.833 876.5,659.5 Z"/></g>
<g><path style="opacity:1" fill="#fed1a5" d="M 916.5,669.5 C 913.375,670.479 910.042,670.813 906.5,670.5C 906.5,672.167 906.5,673.833 906.5,675.5C 910.702,675.183 914.702,675.517 918.5,676.5C 914.167,676.5 909.833,676.5 905.5,676.5C 905.5,674.167 905.5,671.833 905.5,669.5C 909.167,669.5 912.833,669.5 916.5,669.5 Z"/></g>
<g><path style="opacity:1" fill="#fed2a6" d="M 956.5,669.5 C 953.375,670.479 950.042,670.813 946.5,670.5C 946.5,672.167 946.5,673.833 946.5,675.5C 950.702,675.183 954.702,675.517 958.5,676.5C 954.167,676.5 949.833,676.5 945.5,676.5C 945.5,674.167 945.5,671.833 945.5,669.5C 949.167,669.5 952.833,669.5 956.5,669.5 Z"/></g>
<g><path style="opacity:1" fill="#fed4a9" d="M 1052.5,669.5 C 1049.38,670.479 1046.04,670.813 1042.5,670.5C 1042.5,672.167 1042.5,673.833 1042.5,675.5C 1046.7,675.183 1050.7,675.517 1054.5,676.5C 1050.17,676.5 1045.83,676.5 1041.5,676.5C 1041.5,674.167 1041.5,671.833 1041.5,669.5C 1045.17,669.5 1048.83,669.5 1052.5,669.5 Z"/></g>
<g><path style="opacity:1" fill="#fc8103" d="M 229.5,670.5 C 231.924,670.192 234.257,670.526 236.5,671.5C 235.333,671.833 234.167,672.167 233,672.5C 231.319,672.392 230.152,671.725 229.5,670.5 Z"/></g>
<g><path style="opacity:1" fill="#fd8a1b" d="M 356.5,659.5 C 358.456,665.412 359.123,671.745 358.5,678.5C 357.325,678.719 356.325,678.386 355.5,677.5C 352.823,673.471 350.156,669.471 347.5,665.5C 347.44,664.957 347.107,664.624 346.5,664.5C 345.507,669.12 345.173,673.786 345.5,678.5C 343.544,672.588 342.877,666.255 343.5,659.5C 344.978,659.238 346.311,659.571 347.5,660.5C 350.333,664.833 353.167,669.167 356,673.5C 356.499,668.845 356.666,664.179 356.5,659.5 Z"/></g>
<g><path style="opacity:1" fill="#feb164" d="M 347.5,665.5 C 346.833,669.833 346.167,674.167 345.5,678.5C 345.173,673.786 345.507,669.12 346.5,664.5C 347.107,664.624 347.44,664.957 347.5,665.5 Z"/></g>
<g><path style="opacity:1" fill="#fdaa56" d="M 356.5,659.5 C 357.209,658.596 358.209,658.263 359.5,658.5C 359.824,665.354 359.491,672.021 358.5,678.5C 359.123,671.745 358.456,665.412 356.5,659.5 Z"/></g>
<g><path style="opacity:1" fill="#fd8e26" d="M 649.5,659.5 C 650.5,659.5 651.5,659.5 652.5,659.5C 654.244,676.721 656.577,676.721 659.5,659.5C 660.978,659.238 662.311,659.571 663.5,660.5C 665.238,664.713 666.571,669.046 667.5,673.5C 669.012,668.941 670.012,664.274 670.5,659.5C 671.5,659.5 672.5,659.5 673.5,659.5C 671.752,665.745 670.418,672.079 669.5,678.5C 668.167,678.5 666.833,678.5 665.5,678.5C 662.806,658.543 660.139,658.543 657.5,678.5C 656.167,678.5 654.833,678.5 653.5,678.5C 652.325,672.134 650.992,665.8 649.5,659.5 Z"/></g>
<g><path style="opacity:1" fill="#fd8b21" d="M 770.5,659.5 C 772.138,663.913 773.138,668.579 773.5,673.5C 776.041,677.07 779.041,677.403 782.5,674.5C 783.448,669.565 783.781,664.565 783.5,659.5C 785.442,664.056 786.108,669.056 785.5,674.5C 781.072,680.599 776.239,680.932 771,675.5C 770.501,670.177 770.334,664.844 770.5,659.5 Z"/></g>
<g><path style="opacity:1" fill="#fe912d" d="M 69.5,658.5 C 74.5827,657.386 78.2494,659.053 80.5,663.5C 78.7305,664.627 77.3972,664.127 76.5,662C 74.1667,661.333 71.8333,661.333 69.5,662C 68.1667,663.333 68.1667,664.667 69.5,666C 73.4508,666.536 76.9508,668.036 80,670.5C 80.7289,678.09 77.2289,680.923 69.5,679C 66.3845,677.614 65.3845,675.448 66.5,672.5C 68.3733,674.721 70.7067,676.054 73.5,676.5C 77.3526,676.28 78.3526,674.447 76.5,671C 73.0967,670.422 69.9301,669.255 67,667.5C 64.9146,663.675 65.7479,660.675 69.5,658.5 Z"/></g>
<g><path style="opacity:1" fill="#fddbb8" d="M 126.5,675.5 C 129.833,675.5 133.167,675.5 136.5,675.5C 136.5,676.833 136.5,678.167 136.5,679.5C 131.968,679.818 127.634,679.485 123.5,678.5C 127.555,678.824 131.555,678.491 135.5,677.5C 132.358,676.833 129.358,676.166 126.5,675.5 Z"/></g>
<g><path style="opacity:1" fill="#fedab6" d="M 309.5,675.5 C 312.833,675.5 316.167,675.5 319.5,675.5C 319.5,676.833 319.5,678.167 319.5,679.5C 314.968,679.818 310.634,679.485 306.5,678.5C 310.555,678.824 314.555,678.491 318.5,677.5C 315.358,676.833 312.358,676.166 309.5,675.5 Z"/></g>
<g><path style="opacity:1" fill="#ffaa5c" d="M 384.5,675.5 C 385.833,675.5 387.167,675.5 388.5,675.5C 389.093,678.596 388.093,680.929 385.5,682.5C 385.642,680.306 385.309,677.973 384.5,675.5 Z"/></g>
<g><path style="opacity:1" fill="#fd9938" d="M 633.5,675.5 C 634.5,675.5 635.5,675.5 636.5,675.5C 636.838,678.157 636.171,680.49 634.5,682.5C 634.642,680.306 634.309,677.973 633.5,675.5 Z"/></g>
</svg>
